name Walk10.mot
datacolumns 19
datarows 27
range 1.90300000 1.92900000
endheader

                time	   L_ground_force_vx	   L_ground_force_vy	   L_ground_force_vz	   L_ground_force_px	   L_ground_force_py	   L_ground_force_pz	   R_ground_force_vx	   R_ground_force_vy	   R_ground_force_vz	   R_ground_force_px	   R_ground_force_py	   R_ground_force_pz	   L_ground_torque_x	   L_ground_torque_y	   L_ground_torque_z	   R_ground_torque_x	   R_ground_torque_y	   R_ground_torque_z	
          1.90300000	          0.00000000	          0.00000000	          0.00000000	          0.00000000	          0.00000000	          0.00000000	        -35.90179999	        510.56683652	        -30.79713305	          0.45453351	          0.00000000	          0.09459057	          0.00000000	          0.00000000	          0.00000000	          0.00000000	         -0.82516018	          0.00000000	
          1.90400000	          0.00000000	          0.00000000	          0.00000000	          0.00000000	          0.00000000	          0.00000000	        -35.83484225	        510.10146080	        -30.77044434	          0.45517422	          0.00000000	          0.09450584	          0.00000000	          0.00000000	          0.00000000	          0.00000000	         -0.80507744	          0.00000000	
          1.90500000	          0.00000000	          0.00000000	          0.00000000	          0.00000000	          0.00000000	          0.00000000	        -35.76916423	        509.69060030	        -30.76282763	          0.45579568	          0.00000000	          0.09441790	          0.00000000	          0.00000000	          0.00000000	          0.00000000	         -0.77845229	          0.00000000	
          1.90600000	          0.00000000	          0.00000000	          0.00000000	          0.00000000	          0.00000000	          0.00000000	        -35.72187121	        509.35196649	        -30.76648406	          0.45638371	          0.00000000	          0.09429889	          0.00000000	          0.00000000	          0.00000000	          0.00000000	         -0.75132572	          0.00000000	
          1.90700000	          0.00000000	          0.00000000	          0.00000000	          0.00000000	          0.00000000	          0.00000000	        -35.69579021	        509.09541946	        -30.76928077	          0.45696549	          0.00000000	          0.09412838	          0.00000000	          0.00000000	          0.00000000	          0.00000000	         -0.73223624	          0.00000000	
          1.90800000	          0.00000000	          0.00000000	          0.00000000	          0.00000000	          0.00000000	          0.00000000	        -35.68116267	        508.89554722	        -30.74694910	          0.45758006	          0.00000000	          0.09390474	          0.00000000	          0.00000000	          0.00000000	          0.00000000	         -0.72092621	          0.00000000	
          1.90900000	          0.00000000	          0.00000000	          0.00000000	          0.00000000	          0.00000000	          0.00000000	        -35.67070266	        508.71998053	        -30.67798576	          0.45826160	          0.00000000	          0.09364988	          0.00000000	          0.00000000	          0.00000000	          0.00000000	         -0.71013049	          0.00000000	
          1.91000000	          0.00000000	          0.00000000	          0.00000000	          0.00000000	          0.00000000	          0.00000000	        -35.65961990	        508.57882577	        -30.56137082	          0.45904368	          0.00000000	          0.09341553	          0.00000000	          0.00000000	          0.00000000	          0.00000000	         -0.69677116	          0.00000000	
          1.91100000	          0.00000000	          0.00000000	          0.00000000	          0.00000000	          0.00000000	          0.00000000	        -35.64057416	        508.50854869	        -30.41190945	          0.45992884	          0.00000000	          0.09325283	          0.00000000	          0.00000000	          0.00000000	          0.00000000	         -0.68461528	          0.00000000	
          1.91200000	          0.00000000	          0.00000000	          0.00000000	          0.00000000	          0.00000000	          0.00000000	        -35.61176186	        508.52829290	        -30.24475744	          0.46085472	          0.00000000	          0.09316632	          0.00000000	          0.00000000	          0.00000000	          0.00000000	         -0.67804735	          0.00000000	
          1.91300000	          0.00000000	          0.00000000	          0.00000000	          0.00000000	          0.00000000	          0.00000000	        -35.57997704	        508.63228521	        -30.06662265	          0.46173409	          0.00000000	          0.09312006	          0.00000000	          0.00000000	          0.00000000	          0.00000000	         -0.67862185	          0.00000000	
          1.91400000	          0.00000000	          0.00000000	          0.00000000	          0.00000000	          0.00000000	          0.00000000	        -35.54909704	        508.78947768	        -29.87723020	          0.46253307	          0.00000000	          0.09306858	          0.00000000	          0.00000000	          0.00000000	          0.00000000	         -0.68573224	          0.00000000	
          1.91500000	          0.00000000	          0.00000000	          0.00000000	          0.00000000	          0.00000000	          0.00000000	        -35.51529110	        508.94711839	        -29.67745376	          0.46326828	          0.00000000	          0.09297031	          0.00000000	          0.00000000	          0.00000000	          0.00000000	         -0.69442809	          0.00000000	
          1.91600000	          0.00000000	          0.00000000	          0.00000000	          0.00000000	          0.00000000	          0.00000000	        -35.47783169	        509.06432649	        -29.47293241	          0.46393767	          0.00000000	          0.09280692	          0.00000000	          0.00000000	          0.00000000	          0.00000000	         -0.69505710	          0.00000000	
          1.91700000	          0.00000000	          0.00000000	          0.00000000	          0.00000000	          0.00000000	          0.00000000	        -35.44649176	        509.14192664	        -29.27041473	          0.46452593	          0.00000000	          0.09259811	          0.00000000	          0.00000000	          0.00000000	          0.00000000	         -0.68172328	          0.00000000	
          1.91800000	          0.00000000	          0.00000000	          0.00000000	          0.00000000	          0.00000000	          0.00000000	        -35.43037868	        509.20954854	        -29.07438478	          0.46506326	          0.00000000	          0.09238891	          0.00000000	          0.00000000	          0.00000000	          0.00000000	         -0.65743187	          0.00000000	
          1.91900000	          0.00000000	          0.00000000	          0.00000000	          0.00000000	          0.00000000	          0.00000000	        -35.42254828	        509.29277020	        -28.88399143	          0.46560318	          0.00000000	          0.09222857	          0.00000000	          0.00000000	          0.00000000	          0.00000000	         -0.62799278	          0.00000000	
          1.92000000	          0.00000000	          0.00000000	          0.00000000	          0.00000000	          0.00000000	          0.00000000	        -35.40300201	        509.40765010	        -28.69570252	          0.46617323	          0.00000000	          0.09214839	          0.00000000	          0.00000000	          0.00000000	          0.00000000	         -0.59820817	          0.00000000	
          1.92100000	          0.00000000	          0.00000000	          0.00000000	          0.00000000	          0.00000000	          0.00000000	        -35.35371471	        509.57426192	        -28.51342838	          0.46678799	          0.00000000	          0.09213665	          0.00000000	          0.00000000	          0.00000000	          0.00000000	         -0.57538879	          0.00000000	
          1.92200000	          0.00000000	          0.00000000	          0.00000000	          0.00000000	          0.00000000	          0.00000000	        -35.26641381	        509.81121929	        -28.34664881	          0.46746559	          0.00000000	          0.09213821	          0.00000000	          0.00000000	          0.00000000	          0.00000000	         -0.56722079	          0.00000000	
          1.92300000	          0.00000000	          0.00000000	          0.00000000	          0.00000000	          0.00000000	          0.00000000	        -35.14286036	        510.11685021	        -28.19784712	          0.46821274	          0.00000000	          0.09209763	          0.00000000	          0.00000000	          0.00000000	          0.00000000	         -0.57246282	          0.00000000	
          1.92400000	          0.00000000	          0.00000000	          0.00000000	          0.00000000	          0.00000000	          0.00000000	        -34.99500774	        510.46241424	        -28.06336807	          0.46900907	          0.00000000	          0.09200135	          0.00000000	          0.00000000	          0.00000000	          0.00000000	         -0.58073434	          0.00000000	
          1.92500000	          0.00000000	          0.00000000	          0.00000000	          0.00000000	          0.00000000	          0.00000000	        -34.84105731	        510.80609608	        -27.93987336	          0.46981189	          0.00000000	          0.09186229	          0.00000000	          0.00000000	          0.00000000	          0.00000000	         -0.58333059	          0.00000000	
          1.92600000	          0.00000000	          0.00000000	          0.00000000	          0.00000000	          0.00000000	          0.00000000	        -34.69153727	        511.11940853	        -27.81818800	          0.47058242	          0.00000000	          0.09168205	          0.00000000	          0.00000000	          0.00000000	          0.00000000	         -0.57787694	          0.00000000	
          1.92700000	          0.00000000	          0.00000000	          0.00000000	          0.00000000	          0.00000000	          0.00000000	        -34.54079004	        511.39619402	        -27.68303696	          0.47130987	          0.00000000	          0.09145484	          0.00000000	          0.00000000	          0.00000000	          0.00000000	         -0.56497842	          0.00000000	
          1.92800000	          0.00000000	          0.00000000	          0.00000000	          0.00000000	          0.00000000	          0.00000000	        -34.37784439	        511.63712699	        -27.52945452	          0.47201399	          0.00000000	          0.09118806	          0.00000000	          0.00000000	          0.00000000	          0.00000000	         -0.54717402	          0.00000000	
          1.92900000	          0.00000000	          0.00000000	          0.00000000	          0.00000000	          0.00000000	          0.00000000	        -34.19705843	        511.84964252	        -27.37151826	          0.47273384	          0.00000000	          0.09090212	          0.00000000	          0.00000000	          0.00000000	          0.00000000	         -0.52797058	          0.00000000	
